<svg width="16" height="23" viewBox="0 0 16 23" fill="none" xmlns="http://www.w3.org/2000/svg">
<path d="M15.124 23H0.358398V19.9385C1.38379 19.0596 2.40918 18.1807 3.43457 17.3018C4.46973 16.4229 5.43164 15.5488 6.32031 14.6797C8.19531 12.8633 9.47949 11.4229 10.1729 10.3584C10.8662 9.28418 11.2129 8.12695 11.2129 6.88672C11.2129 5.75391 10.8369 4.87012 10.085 4.23535C9.34277 3.59082 8.30273 3.26855 6.96484 3.26855C6.07617 3.26855 5.11426 3.4248 4.0791 3.7373C3.04395 4.0498 2.0332 4.52832 1.04688 5.17285H0.900391V2.09668C1.59375 1.75488 2.5166 1.44238 3.66895 1.15918C4.83105 0.875977 5.9541 0.734375 7.03809 0.734375C9.27441 0.734375 11.0273 1.27637 12.2969 2.36035C13.5664 3.43457 14.2012 4.89453 14.2012 6.74023C14.2012 7.57031 14.0938 8.34668 13.8789 9.06934C13.6738 9.78223 13.3662 10.4609 12.9561 11.1055C12.5752 11.7109 12.126 12.3066 11.6084 12.8926C11.1006 13.4785 10.4805 14.1279 9.74805 14.8408C8.70312 15.8662 7.62402 16.8623 6.51074 17.8291C5.39746 18.7861 4.35742 19.6748 3.39062 20.4951H15.124V23Z" fill="white"/>
</svg>
