<svg width="15" height="24" viewBox="0 0 15 24" fill="none" xmlns="http://www.w3.org/2000/svg">
<path d="M13.2051 12.4971C13.6738 12.917 14.0596 13.4443 14.3623 14.0791C14.665 14.7139 14.8164 15.5342 14.8164 16.54C14.8164 17.5361 14.6357 18.4492 14.2744 19.2793C13.9131 20.1094 13.4053 20.832 12.751 21.4473C12.0186 22.1309 11.1543 22.6387 10.1582 22.9707C9.17188 23.293 8.08789 23.4541 6.90625 23.4541C5.69531 23.4541 4.50391 23.3076 3.33203 23.0146C2.16016 22.7314 1.19824 22.4189 0.446289 22.0771V19.0156H0.666016C1.49609 19.5625 2.47266 20.0166 3.5957 20.3779C4.71875 20.7393 5.80273 20.9199 6.84766 20.9199C7.46289 20.9199 8.11719 20.8174 8.81055 20.6123C9.50391 20.4072 10.0654 20.1045 10.4951 19.7041C10.9443 19.2744 11.2764 18.8008 11.4912 18.2832C11.7158 17.7656 11.8281 17.1113 11.8281 16.3203C11.8281 15.5391 11.7012 14.8945 11.4473 14.3867C11.2031 13.8691 10.8613 13.4639 10.4219 13.1709C9.98242 12.8682 9.4502 12.6631 8.8252 12.5557C8.2002 12.4385 7.52637 12.3799 6.80371 12.3799H5.48535V9.94824H6.51074C7.99512 9.94824 9.17676 9.64062 10.0557 9.02539C10.9443 8.40039 11.3887 7.49219 11.3887 6.30078C11.3887 5.77344 11.2764 5.31445 11.0518 4.92383C10.8271 4.52344 10.5146 4.19629 10.1143 3.94238C9.69434 3.68848 9.24512 3.5127 8.7666 3.41504C8.28809 3.31738 7.74609 3.26855 7.14062 3.26855C6.21289 3.26855 5.22656 3.43457 4.18164 3.7666C3.13672 4.09863 2.15039 4.56738 1.22266 5.17285H1.07617V2.11133C1.76953 1.76953 2.69238 1.45703 3.84473 1.17383C5.00684 0.880859 6.12988 0.734375 7.21387 0.734375C8.27832 0.734375 9.21582 0.832031 10.0264 1.02734C10.8369 1.22266 11.5693 1.53516 12.2236 1.96484C12.9268 2.43359 13.459 3 13.8203 3.66406C14.1816 4.32812 14.3623 5.10449 14.3623 5.99316C14.3623 7.2041 13.9326 8.26367 13.0732 9.17188C12.2236 10.0703 11.2178 10.6367 10.0557 10.8711V11.0762C10.5244 11.1543 11.0615 11.3203 11.667 11.5742C12.2725 11.8184 12.7852 12.126 13.2051 12.4971Z" fill="white"/>
</svg>
